<svg  xmlns="http://www.w3.org/2000/svg" version="1.1" viewBox="0 0 1600 896" width="1280" height="1280">
<path transform="translate(115 313)" d="m0 0c0.895-0.00426 1.79-0.00853 2.71-0.0129 1.49 6.8e-4 1.49 6.8e-4 3 0.00137 1.04-0.00336 2.08-0.00672 3.14-0.0102 3.46-0.00956 6.92-0.0115 10.4-0.0125 2.41-0.00321 4.82-0.00658 7.24-0.0101 5.08-0.00601 10.2-0.00784 15.2-0.00725 6.45 1.01e-4 12.9-0.0134 19.4-0.0308 5-0.0112 10-0.0131 15-0.0126 2.37-0.00117 4.75-0.00551 7.12-0.0133 32.5-0.0967 70.4 0.132 95.4 24 1.13 1.12 1.13 1.12 2.28 2.27 0.957 0.922 0.957 0.922 1.93 1.86 12.5 13 14.8 29 14.4 46.2-0.464 10.5-4.32 19.1-11.4 26.9-0.697 0.801-1.39 1.6-2.11 2.43-6.51 7.02-13.4 11.3-21.9 15.6-0.621 0.33-1.24 0.66-1.88 1-5.02 2.62-10.1 4.51-15.5 6.25-1.21 0.402-1.21 0.402-2.44 0.812-5.9 1.94-5.9 1.94-8.18 1.94v2c0.585 0.0142 1.17 0.0284 1.77 0.043 17.9 0.995 37.8 7.81 51.2 20 0.82 0.74 1.64 1.48 2.48 2.24 14 13.3 18.8 28.8 19.6 47.7 0.192 18.3-6.29 35-19.1 48.1-26.2 23.5-60.7 25.5-94.2 25.3-3.56-0.0191-7.12-0.0205-10.7-0.0241-6.7-0.00923-13.4-0.0337-20.1-0.064-7.65-0.0338-15.3-0.0501-22.9-0.0651-15.7-0.0311-31.4-0.0837-47.1-0.151-0.0424-2.33-0.0409-4.67 0-7 0.33-0.33 0.66-0.66 1-1h31v-257h-31c-1-1-1-1-1.12-4.5 0.175-4.9 0.813-4.62 5.27-4.63zm71.9 10.1c-0.0957 1.49-0.122 2.99-0.12 4.49-0.00137 0.969-0.00275 1.94-0.00417 2.94 0.0036 1.07 0.00719 2.14 0.0109 3.25-1.46e-4 1.12-2.92e-4 2.24-4.43e-4 3.4 7e-4 3.73 0.00849 7.46 0.0163 11.2 0.00186 2.58 0.00329 5.15 0.00429 7.73 0.00344 6.1 0.0113 12.2 0.0213 18.3 0.0112 6.95 0.0167 13.9 0.0217 20.8 0.0105 14.3 0.0281 28.6 0.0503 42.9 2.81 1.41 5.16 1.13 8.3 1.13 1.93 0.00193 1.93 0.00193 3.9 0.00391 1.01-0.00314 1.01-0.00314 2.05-0.00635 2.01-0.00525 4.02 4.2e-4 6.04 0.00635 25.1 0.0701 25.1 0.0701 46.8-11.3 11.6-11.7 13.8-27.2 13.9-43.2-0.103-4.93-0.497-9.81-1.01-14.7-0.125-1.25-0.25-2.5-0.379-3.79-1.72-14.2-6.74-28.5-18.3-37.8-12.2-7.42-27.3-6.6-41-6.56-2.44 0.00543-4.87-8.75e-6 -7.31-0.00635-1.55 6.6e-4 -3.09 0.00194-4.64 0.00391-1.09-0.00304-1.09-0.00304-2.21-0.00613-3.38-0.284-3.38-0.284-6.19 1.14zm0 125v131c25.5 0.724 25.5 0.724 50-3 1.06-0.255 2.12-0.51 3.21-0.773 10.3-2.9 19.9-8.68 25.9-17.7 2.82-5.04 4.72-9.91 5.88-15.6 0.204-0.971 0.407-1.94 0.617-2.94 3.17-18.7 3.19-39.6-1.62-58.1-0.267-1.03-0.534-2.05-0.809-3.11-2.8-8.99-8.52-16.4-16.2-21.9-2.4-1.15-4.72-2.17-7.19-3.12-1-0.389-1-0.389-2.03-0.786-18.1-6.85-38.8-5.55-57.8-4.09z" fill="#ffffff"/>
<path transform="translate(581,313)" d="m0 0h186c-0.933 4.66-1.96 7.03-4.32 11-0.338 0.574-0.676 1.15-1.02 1.74-1.11 1.87-2.22 3.74-3.34 5.61-0.772 1.3-1.54 2.61-2.31 3.91-6.9 11.6-13.9 23.2-21 34.7-0.765 1.25-1.53 2.5-2.29 3.75-3.5 5.71-7.03 11.4-10.6 17.1-0.427 0.684-0.854 1.37-1.29 2.07-2 3.19-4 6.39-6.02 9.56-6.4 10.1-12.5 20.4-18.6 30.7-5.27 8.91-10.6 17.8-16.1 26.5-2.47 3.92-4.85 7.89-7.23 11.9-3.54 5.93-7.13 11.8-10.7 17.7-6.48 10.7-12.9 21.3-19.3 32-5.86 9.78-11.7 19.6-17.7 29.3-5.76 9.43-11.4 18.9-17.1 28.4 10.6-0.0849 21.1-0.18 31.7-0.288 4.91-0.0497 9.81-0.096 14.7-0.134 4.75-0.0372 9.49-0.0837 14.2-0.136 1.8-0.0183 3.6-0.0335 5.4-0.0453 21.2-0.144 44.1-1.2 60.6-16.4 15.4-16.5 19.5-39.8 24.3-61 1.65-0.33 3.3-0.66 5-1 0.924 3.78 0.999 6.91 0.617 10.8-0.113 1.18-0.226 2.35-0.342 3.57-0.132 1.29-0.264 2.58-0.4 3.92-0.135 1.37-0.27 2.74-0.404 4.11-0.305 3.09-0.615 6.18-0.928 9.27-0.506 4.99-0.999 9.99-1.49 15-0.444 4.49-0.892 8.98-1.34 13.5-0.224 2.24-0.447 4.48-0.669 6.72-0.314 3.17-0.634 6.34-0.956 9.5-0.0947 0.965-0.189 1.93-0.287 2.92-0.0904 0.879-0.181 1.76-0.274 2.66-0.116 1.16-0.116 1.16-0.235 2.34-0.29 1.77-0.29 1.77-1.29 2.77-2.55 0.0978-5.08 0.13-7.64 0.12-0.809 8.54e-4 -1.62 0.00171-2.45 0.00259-2.73 0.00166-5.47-0.00387-8.2-0.00932-1.95-2.82e-4 -3.9-1.24e-4 -5.85 4.43e-4 -5.31 2.88e-4 -10.6-0.00561-15.9-0.0126-5.55-0.00623-11.1-0.00684-16.6-0.00803-10.5-0.00311-21-0.0113-31.5-0.0213-12-0.0112-23.9-0.0167-35.9-0.0217-24.6-0.0105-49.2-0.0281-73.9-0.0503-0.0549-1.74-0.0939-3.48-0.126-5.23-0.0234-0.97-0.0469-1.94-0.071-2.94 0.32-4.6 2.44-7.68 5.01-11.4 1.01-1.56 2.03-3.12 3.04-4.68 0.784-1.18 0.784-1.18 1.58-2.38 2.49-3.79 4.83-7.68 7.19-11.6 0.925-1.51 1.85-3.03 2.78-4.54 2.28-3.74 4.54-7.5 6.79-11.3 8.5-14.2 17.2-28.3 26.1-42.4 4.19-6.67 8.26-13.4 12.3-20.2 3.42-5.73 6.9-11.4 10.4-17.1 3.31-5.37 6.59-10.8 9.87-16.2 0.532-0.875 0.532-0.875 1.07-1.77 6.92-11.4 13.7-22.8 20.5-34.3 4.78-8.09 9.65-16.1 14.6-24.1 6.3-10.3 12.6-20.5 18.7-30.9 1.48-2.48 2.97-4.95 4.46-7.43 0.548-0.912 1.1-1.82 1.66-2.76 1.08-1.8 2.17-3.6 3.25-5.41 0.738-1.23 0.738-1.23 1.49-2.48 0.44-0.732 0.88-1.46 1.33-2.22 0.735-1.25 1.42-2.53 2.07-3.82-8.75 0.085-17.5 0.18-26.3 0.288-4.07 0.0496-8.13 0.0959-12.2 0.134-3.94 0.0373-7.87 0.0838-11.8 0.136-1.49 0.0183-2.98 0.0335-4.47 0.0453-18.8 0.154-40.2 1.21-54.9 14.4-13.9 15.4-18.9 38.2-23.3 58-2.97 0.495-2.97 0.495-6 1 0.919-19.4 2.66-38.6 4.96-57.9 0.819-6.92 1.47-13.8 1.83-20.8 0.211-2.34 0.211-2.34 1.21-4.34z" fill="#ffffff"/>
<path transform="translate(1063,328)" d="m0 0c1.59-1.73 3.17-3.46 4.75-5.19 1.32-1.44 1.32-1.44 2.67-2.92 2.58-2.82 2.58-2.82 4.71-5.73 1.87-2.16 1.87-2.16 5.06-2.54 2.81 0.375 2.81 0.375 3.81 1.38 0.239 2.36 0.403 4.69 0.523 7.06 0.0411 0.78 0.0822 1.56 0.125 2.36 0.581 12.1 0.722 24.2 0.91 36.4 0.0557 3.6 0.119 7.2 0.185 10.8 0.0498 2.79 0.095 5.58 0.139 8.37 0.032 1.97 0.0684 3.95 0.105 5.92 0.0169 1.18 0.0337 2.37 0.0511 3.59 0.0255 1.57 0.0255 1.57 0.0514 3.17-0.089 2.35-0.089 2.35-1.09 3.35-2 0.0408-4 0.0425-6 0-1.63-4.23-3.17-8.45-4.51-12.8-4.82-15.5-10.8-29.8-21.5-42.2-0.594-0.799-1.19-1.6-1.8-2.42-10.4-12.2-26.6-18.2-42.2-19.6-16.7-1.03-32.9 1.48-46.3 12.2-10.8 10.2-16 25-19.4 39.1-0.199 0.796-0.397 1.59-0.602 2.41-3.89 16.9-3.95 34-3.91 51.3-0.00135 2.37-0.0033 4.75-0.0058 7.12-0.00293 4.95 0.00127 9.9 0.0107 14.8 0.0114 6.29 0.00482 12.6-0.00714 18.9-0.00728 4.9-0.0049 9.79 2.56e-4 14.7 0.00132 2.32-2.5e-4 4.64-0.00496 6.96-0.0259 16.3 0.307 32.7 3.96 48.7 0.167 0.731 0.333 1.46 0.505 2.22 3.8 15.5 11.4 31.3 24.8 40.7 12.8 7.62 28.2 7.08 42.3 4.03 12-3.31 22.3-10.2 29.1-20.8 10.1-18.4 8.81-40 8.62-60.2-1.15 0.00524-2.29 0.0105-3.47 0.0159-4.24 0.018-8.47 0.0296-12.7 0.0391-1.84 0.00504-3.67 0.0119-5.51 0.0205-2.63 0.0121-5.27 0.0178-7.9 0.0222-1.24 0.00774-1.24 0.00774-2.5 0.0156-1.97 1.96e-4 -3.94-0.0513-5.91-0.113-1-1-1-1-1.12-4 0.125-3 0.125-3 1.12-4 1.44-0.0977 2.88-0.126 4.33-0.127 0.934-0.00282 1.87-0.00564 2.83-0.00854 1.55 0.00304 1.55 0.00304 3.13 0.00613 1.08-0.00175 2.16-0.0035 3.28-0.00531 3.59-0.00442 7.19-0.00148 10.8 0.00189 2.48-6.73e-4 4.97-0.00164 7.45-0.0029 5.88-0.00167 11.8 0.00185 17.7 0.00715 4.7 0.00375 9.4 0.00243 14.1-0.00181 6.47-0.00578 12.9-0.00671 19.4-0.00344 2.47 6.7e-4 4.94-1.6e-4 7.42-0.00248 3.45-0.00253 6.9 0.00131 10.3 0.0069 1.03-0.00202 2.07-0.00405 3.13-0.00613 0.934 0.00282 1.87 0.00564 2.83 0.00854 0.816 3.77e-4 1.63 7.54e-4 2.47 0.00114 1.85 0.126 1.85 0.126 2.85 1.13 0.125 3 0.125 3 0 6-1 1-1 1-3.22 1.11-0.958-0.00524-1.92-0.0105-2.9-0.0159-1.55-0.00483-1.55-0.00483-3.13-0.00977-1.09-0.00838-2.18-0.0168-3.3-0.0254-1.64-0.00677-1.64-0.00677-3.31-0.0137-2.71-0.0118-5.42-0.0283-8.13-0.0488-0.0864 1.07-0.173 2.13-0.262 3.23-2.31 25.5-8.6 49.5-28.7 66.8-23.6 17.6-54 26.5-83.2 23.4-19.4-3-37-10.2-51.8-23.4-1.22-1.05-1.22-1.05-2.47-2.11-28.7-25-44.5-60.7-47.4-98.4-2.57-43.6 6.86-87.5 36.4-121 1.47-1.57 2.95-3.13 4.44-4.69 0.683-0.746 1.37-1.49 2.07-2.26 38.4-40.6 90.4-38.9 136-12.7z" fill="#ffffff"/>
<path transform="translate(1135 313)" d="m0 0c1.36-0.00423 1.36-0.00423 2.75-0.00854 1.51 0.00304 1.51 0.00304 3.04 0.00613 1.58-0.00263 1.58-0.00263 3.19-0.00531 3.5-0.00442 6.99-0.00148 10.5 0.00189 2.42-6.73e-4 4.84-0.00164 7.25-0.0029 5.07-0.00148 10.1 6.79e-4 15.2 0.00534 6.52 0.0057 13 0.00242 19.6-0.00357 4.99-0.0036 9.99-0.00247 15 1.28e-4 2.41 6.7e-4 4.81-1.6e-4 7.22-0.00248 3.35-0.00253 6.71 0.00131 10.1 0.0069 1-0.00202 2.01-0.00405 3.04-0.00613 0.909 0.00282 1.82 0.00564 2.75 0.00854 0.794 3.77e-4 1.59 7.54e-4 2.41 0.00114 1.81 0.126 1.81 0.126 2.81 1.13 0.125 3.5 0.125 3.5 0 7-1 1-1 1-3.96 1.11-1.29-0.00524-2.59-0.0105-3.92-0.0159-1.03-0.00212-1.03-0.00212-2.08-0.00429-2.2-0.00561-4.4-0.0182-6.6-0.0309-1.49-0.00501-2.98-0.00958-4.47-0.0137-3.66-0.011-7.31-0.0283-11-0.0488-0.0468 26.9-0.082 53.8-0.104 80.6-0.0103 12.5-0.0243 25-0.0473 37.4-0.02 10.9-0.0328 21.8-0.0373 32.6-0.0026 5.76-0.00868 11.5-0.0233 17.3-0.0137 5.43-0.0177 10.9-0.0148 16.3-5.47e-4 1.98-0.00448 3.97-0.0122 5.95-0.073 19.8 0.366 39.2 14.2 54.8 15.6 14.7 33.7 16.7 54.3 16.1 5.75-0.304 11.1-1.47 16.7-3.14 0.862-0.244 1.72-0.487 2.61-0.738 11.7-3.94 21.3-12.7 27.4-23.3 0.384-0.632 0.768-1.26 1.16-1.91 8.85-15.9 7.99-34.2 7.95-51.7-2.83e-4 -1.96-1.23e-4 -3.92 4.43e-4 -5.89 2.85e-4 -5.29-0.00557-10.6-0.0126-15.9-0.00628-5.55-0.00684-11.1-0.00803-16.6-0.0031-10.5-0.0113-21-0.0213-31.5-0.0112-11.9-0.0167-23.9-0.0217-35.8-0.0104-24.6-0.028-49.1-0.0503-73.7-0.934-0.0251-1.87-0.0501-2.83-0.0759-3.45-0.0949-6.91-0.194-10.4-0.296-1.5-0.0434-2.99-0.0851-4.49-0.125-2.15-0.0576-4.29-0.121-6.44-0.186-1.29-0.0367-2.59-0.0733-3.92-0.111-2.96-0.205-2.96-0.205-3.96-1.21-0.125-3.5-0.125-3.5 0-7 1.86-1.86 4.95-1.13 7.43-1.13 0.672-0.00175 1.34-0.0035 2.03-0.00531 2.23-0.00442 4.46-0.00148 6.69 0.00189 1.54-6.73e-4 3.09-0.00164 4.63-0.0029 3.24-0.00148 6.48 6.77e-4 9.71 0.00534 4.16 0.0057 8.32 0.00242 12.5-0.00357 3.19-0.00361 6.38-0.00247 9.56 1.28e-4 1.53 6.69e-4 3.07-1.59e-4 4.6-0.00248 2.14-0.00253 4.28 0.00131 6.42 0.0069 1.83 0.00119 1.83 0.00119 3.7 0.00241 2.73 0.127 2.73 0.127 3.73 1.13 0.125 3.5 0.125 3.5 0 7-1.77 1.77-4.38 1.23-6.79 1.32-1.75 0.0628-1.75 0.0628-3.54 0.127-1.23 0.0393-2.46 0.0786-3.73 0.119-1.24 0.0432-2.47 0.0864-3.74 0.131-3.06 0.106-6.13 0.208-9.19 0.307-0.00331 1.02-0.00662 2.04-0.01 3.1-0.0811 24.9-0.173 49.8-0.277 74.7-0.05 12-0.0965 24.1-0.134 36.1-0.033 10.5-0.0729 21-0.121 31.5-0.0252 5.56-0.047 11.1-0.0606 16.7-0.0129 5.24-0.0351 10.5-0.064 15.7-9e-3 1.91-0.0147 3.83-0.0168 5.74-0.0313 24.4-2.32 47.5-19.9 66.1-20.8 19.6-49.2 21-76.3 20.4-14.8-0.522-30.9-3.06-44.1-10.1-0.919-0.469-1.84-0.938-2.79-1.42-16.2-8.76-27.9-21.8-34.1-39.1-6.82-23.1-4.37-49.8-4.3-73.7 0.0127-5.18 0.0137-10.4 0.0161-15.5 0.00617-9.76 0.0225-19.5 0.0427-29.3 0.0225-11.1 0.0334-22.3 0.0434-33.4 0.0208-22.9 0.0559-45.7 0.101-68.6-0.934 0.00524-1.87 0.0105-2.83 0.0159-3.45 0.017-6.91 0.0296-10.4 0.0391-1.5 0.00504-2.99 0.0119-4.49 0.0205-2.15 0.0121-4.29 0.0178-6.44 0.0222-1.94 0.00786-1.94 0.00786-3.92 0.0159-2.96-0.114-2.96-0.114-3.96-1.11-0.125-3.5-0.125-3.5 0-7 1.56-1.56 3.05-1.13 5.21-1.13z" fill="#ffffff"/>
<path transform="translate(434,313)" d="m0 0c1.43-0.135 2.87-0.232 4.31-0.312 0.801-0.058 1.6-0.116 2.43-0.176 2.26 0.488 2.26 0.488 3.79 2.7 1.37 2.59 2.39 5.04 3.32 7.81 0.498 1.48 0.498 1.48 1.01 2.98 0.352 1.06 0.705 2.13 1.07 3.22 0.377 1.12 0.754 2.24 1.14 3.39 0.811 2.41 1.62 4.82 2.43 7.23 1.92 5.74 3.85 11.5 5.78 17.2 0.436 1.29 0.872 2.59 1.31 3.88 4.03 12 8.17 23.9 12.4 35.8 4.74 13.5 9.36 27 13.8 40.6 3.99 12.1 8.13 24.1 12.3 36.1 0.3 0.853 0.6 1.71 0.909 2.59 1.18 3.36 2.36 6.72 3.54 10.1 8.81 25.1 17.3 50.2 25.9 75.4 0.33 0.971 0.66 1.94 0.999 2.94 1.53 4.52 3.06 9.04 4.56 13.6 1.29 0.0606 2.58 0.121 3.9 0.184 1.68 0.0844 3.36 0.169 5.04 0.254 1.28 0.059 1.28 0.059 2.58 0.119 0.809 0.0419 1.62 0.0838 2.45 0.127 0.749 0.0367 1.5 0.0733 2.27 0.111 1.77 0.205 1.77 0.205 2.77 1.21v7h-102c0-7 0-7 1-8 2.52-0.0885 5.01-0.115 7.54-0.0977 1.13 0.00212 1.13 0.00212 2.28 0.00429 2.41 0.00561 4.83 0.0182 7.24 0.0309 1.63 0.00501 3.27 0.00958 4.9 0.0137 4.01 0.011 8.02 0.0283 12 0.0488-0.422-1.26-0.422-1.26-0.853-2.55-2.66-7.97-5.33-15.9-7.99-23.9-1.37-4.1-2.74-8.2-4.11-12.3-1.32-3.96-2.65-7.92-3.97-11.9-0.502-1.5-1-3.01-1.51-4.51-2.45-7.34-4.9-14.7-7.01-22.1-0.427-1.73-0.427-1.73-1.57-2.72-2.49-0.125-4.96-0.186-7.46-0.205-0.78-0.0099-1.56-0.0198-2.36-0.03-2.59-0.0317-5.18-0.0564-7.78-0.0811-1.79-0.0206-3.58-0.0416-5.38-0.063-4.73-0.0553-9.45-0.105-14.2-0.153-4.82-0.0502-9.64-0.106-14.5-0.161-9.46-0.108-18.9-0.209-28.4-0.307-1.95 5.82-3.87 11.7-5.75 17.5-6.86 21.2-13.9 42.4-21.2 63.5h34c1 5 1 5 1 8h-72c0-7 0-7 1-8 1.78-0.158 3.56-0.251 5.35-0.316 1.08-0.0419 2.16-0.0838 3.27-0.127 1.14-0.0393 2.27-0.0786 3.44-0.119 1.14-0.0432 2.28-0.0864 3.46-0.131 2.83-0.106 5.65-0.208 8.48-0.307 1.78-4.98 3.55-9.96 5.31-14.9 0.403-1.14 0.403-1.14 0.814-2.3 4.03-11.4 7.91-22.8 11.7-34.3 2.74-8.32 5.48-16.6 8.75-24.8 6.09-15.2 11.1-30.8 16.3-46.3 1.4-4.12 2.79-8.23 4.19-12.3 1.01-2.99 2.03-5.98 3.04-8.97 3.89-11.5 7.93-22.9 12.1-34.3 2.16-5.92 4.24-11.9 6.28-17.8 0.592-1.72 0.592-1.72 1.2-3.47 2.46-7.16 4.89-14.3 7.32-21.5 1.45-4.28 2.89-8.55 4.34-12.8 1.07-3.17 2.14-6.33 3.2-9.5 0.668-1.97 1.34-3.95 2-5.92 0.454-1.36 0.454-1.36 0.917-2.74 1.55-4.57 3.23-8.85 5.52-13.1zm-16 66c-7.63 22.6-15 45.2-22.4 67.9-0.71 2.2-1.42 4.39-2.13 6.59-1.14 3.52-2.27 7.04-3.41 10.6-0.422 1.31-0.845 2.62-1.27 3.93-2.36 7.31-4.67 14.6-6.84 22 1.11 1.34 1.11 1.34 3.93 1.12 1.97-0.00333 1.97-0.00333 3.98-0.00673 1.08 2.19e-4 1.08 2.19e-4 2.19 4.43e-4 2.4-6.99e-4 4.79-0.00849 7.19-0.0163 1.66-0.00186 3.32-0.00329 4.97-0.00429 4.37-0.00383 8.74-0.0137 13.1-0.0247 4.46-0.0102 8.91-0.0148 13.4-0.0198 8.75-0.0107 17.5-0.0278 26.3-0.0488 1.51-3.03 0.148-5.15-0.862-8.21-0.297-0.872-0.593-1.74-0.899-2.64-0.306-0.917-0.611-1.83-0.926-2.78-1.02-3.05-2.05-6.1-3.08-9.14-0.71-2.12-1.42-4.24-2.13-6.36-1.87-5.6-3.76-11.2-5.64-16.8-1.9-5.66-3.8-11.3-5.69-17-2.14-6.38-4.27-12.8-6.42-19.1-0.327-0.974-0.654-1.95-0.991-2.95-0.628-1.87-1.26-3.73-1.89-5.6-1.28-3.77-2.54-7.55-3.69-11.4-0.332-1.09-0.664-2.17-1.01-3.29-0.387-1.34-0.387-1.34-0.781-2.7-1.24-2.53-2.41-3.08-5-4.04z" fill="#ffffff"/>
<path transform="translate(833,195)" d="m0 0c2.25 0.0625 2.25 0.0625 5 1 3.64 5.26 4.86 9.91 5.69 16.2 0.117 0.774 0.233 1.55 0.354 2.35 0.941 6.49 1.41 12.9 1.96 19.5h638c0.66 1.32 1.32 2.64 2 4-2 2-2 2-3.93 2.25-0.796-3.12e-4 -1.59-6.24e-4 -2.41-9.45e-4 -0.919 0.00449-1.84 0.00899-2.78 0.0136-1.02-0.00525-2.04-0.0105-3.09-0.0159-1.08 0.00231-2.16 0.00462-3.27 0.00699-3.66 0.00534-7.32-0.00372-11-0.0126-2.63 8.71e-4 -5.27 0.00254-7.9 0.00518-5.75 0.00416-11.5 8.44e-4 -17.2-0.00728-8.55-0.012-17.1-0.0127-25.6-0.0109-14.4 0.00263-28.7-0.00407-43.1-0.016-14.2-0.0118-28.5-0.0195-42.7-0.0217-0.884-1.37e-4 -1.77-2.75e-4 -2.68-4.17e-4 -4.49-6.77e-4 -8.98-0.00128-13.5-0.00185-31.8-0.0042-63.7-0.0177-95.5-0.0366-30.9-0.0184-61.9-0.0325-92.8-0.041-0.953-2.63e-4 -1.91-5.26e-4 -2.89-7.97e-4 -9.57-0.00264-19.1-0.00519-28.7-0.00768-19.5-0.00507-39-0.0107-58.5-0.0167-0.896-2.75e-4 -1.79-5.49e-4 -2.72-8.32e-4 -59.9-0.0184-120-0.0501-180-0.0839-0.0228 0.756-0.0457 1.51-0.0692 2.29-0.22 7.29-0.441 14.6-0.661 21.9-0.113 3.74-0.226 7.49-0.34 11.2-0.109 3.62-0.219 7.25-0.329 10.9-0.0441 1.46-0.0883 2.92-0.132 4.37-0.244 8.08-0.492 16.2-0.749 24.2-0.0227 0.719-0.0455 1.44-0.0689 2.18-0.107 3.4-0.216 6.79-0.325 10.2-0.423 13.3-0.658 26.6-0.878 39.9-0.053 3.16-0.11 6.31-0.167 9.47-0.0136 0.891-0.0272 1.78-0.0411 2.7-0.127 6.97-0.412 13.9-0.713 20.9-0.492 11.4-0.851 22.9-1.16 34.3-0.0912 3.39-0.185 6.79-0.278 10.2-0.199 7.21-0.395 14.4-0.591 21.6-0.228 8.37-0.456 16.7-0.688 25.1-0.0903 3.29-0.179 6.58-0.267 9.87-0.325 11.9-0.731 23.8-1.2 35.7-0.291 7.4-0.527 14.8-0.659 22.2-0.0208 1.05-0.0416 2.1-0.063 3.18-0.0633 3.23-0.123 6.46-0.183 9.68-0.0434 2.24-0.087 4.48-0.131 6.73-0.105 5.38-0.207 10.8-0.307 16.1h-2c-1.64-44.8-2.76-89.6-3.85-134-0.124-5.1-0.25-10.2-0.376-15.3-0.0856-3.5-0.169-7.01-0.253-10.5-0.309-12.7-0.695-25.4-1.18-38.1-0.35-9.31-0.552-18.6-0.684-27.9-0.373-25.2-0.918-50.5-1.53-75.7-0.0882-3.66-0.174-7.32-0.259-11-0.101-4.35-0.205-8.7-0.313-13-0.0394-1.61-0.0775-3.23-0.114-4.84-0.051-2.23-0.107-4.46-0.164-6.69-0.0303-1.25-0.0606-2.5-0.0918-3.79-0.139-2.68-0.358-5.24-0.701-7.89-0.242-1.87-0.242-1.87-0.488-3.77-0.613-4e-4 -1.23-8e-4 -1.86-0.00121-66.7-0.0437-133-0.091-200-0.158-0.996-9.96e-4 -1.99-0.00199-3.02-0.00302-21.6-0.0217-43.3-0.044-64.9-0.067-10.6-0.0113-21.2-0.0224-31.8-0.0335-1.06-0.0011-2.11-0.00221-3.2-0.00334-34.3-0.0357-68.5-0.0617-103-0.0826-35.2-0.0216-70.4-0.0529-106-0.0966-4.97-0.00616-9.93-0.0122-14.9-0.0182-1.47-0.00177-1.47-0.00177-2.96-0.00358-15.8-0.0187-31.5-0.0271-47.3-0.0317-15.8-0.00479-31.7-0.0204-47.5-0.0472-9.42-0.0156-18.8-0.0228-28.2-0.0181-6.28 0.0023-12.6-0.00616-18.8-0.0236-3.58-0.00961-7.17-0.0144-10.8-0.00607-3.85 0.00882-7.71-0.00529-11.6-0.0218-1.12 0.00628-2.25 0.0126-3.41 0.019-1.02-0.00818-2.04-0.0164-3.1-0.0248-1.32-0.00117-1.32-0.00117-2.67-0.00236-2.83-0.452-4.23-1.51-6.36-3.38 1.75-3.88 1.75-3.88 4-5 1.59-0.0961 3.19-0.129 4.78-0.131 1.02-0.00368 2.04-0.00736 3.08-0.0112 1.13 0.00102 2.26 0.00205 3.42 0.0031 1.2-0.00284 2.39-0.00568 3.62-0.00861 3.34-0.00693 6.69-0.00934 10-0.00993 3.63-0.00172 7.26-0.0092 10.9-0.016 6.37-0.0111 12.7-0.0184 19.1-0.0234 9.47-0.00739 18.9-0.0205 28.4-0.0347 15.9-0.0238 31.9-0.043 47.8-0.0596 15.8-0.0164 31.6-0.0349 47.3-0.0561 0.98-0.00132 1.96-0.00264 2.97-0.00399 4.98-0.0067 9.95-0.0134 14.9-0.0202 35.3-0.0478 70.6-0.091 106-0.131 34.3-0.0393 68.6-0.0807 103-0.125 1.06-0.00136 2.11-0.00273 3.2-0.00413 10.6-0.0137 21.2-0.0274 31.8-0.0412 21.6-0.028 43.2-0.0558 64.8-0.0833 0.993-0.00127 1.99-0.00254 3.01-0.00384 66.4-0.0847 133-0.163 199-0.24 0.0804-0.589 0.161-1.18 0.244-1.78 0.373-2.72 0.752-5.44 1.13-8.15 0.189-1.39 0.189-1.39 0.383-2.81 1.25-8.9 2.36-16.6 7.24-24.3zm1 18c-2.76 6.36-3.63 12.1-4 19 3.21 1.73 5.32 2.3 9 2 1.69-1.69 1.21-3.75 1.25-6.06-0.0488-5.35-0.858-9.15-3.25-13.9-0.99-0.33-1.98-0.66-3-1zm-4 28c-0.367 8.56 0.26 15.9 3 24 1.32 0.33 2.64 0.66 4 1 3.54-8.26 3.55-16.1 3-25-1.04-1.26-1.04-1.26-3.31-1.12-2.41 0.112-4.38 0.504-6.69 1.12z" fill="#ffffff"/>
<path transform="translate(1386 313)" d="m0 0c1.36-0.00423 1.36-0.00423 2.75-0.00854 1.51 0.00304 1.51 0.00304 3.04 0.00613 1.58-0.00263 1.58-0.00263 3.19-0.00531 3.5-0.00442 6.99-0.00148 10.5 0.00189 2.42-6.73e-4 4.84-0.00164 7.25-0.0029 5.07-0.00148 10.1 6.79e-4 15.2 0.00534 6.52 0.0057 13 0.00242 19.6-0.00357 4.99-0.0036 9.99-0.00247 15 1.28e-4 2.41 6.7e-4 4.81-1.6e-4 7.22-0.00248 3.35-0.00253 6.71 0.00131 10.1 0.0069 1-0.00202 2.01-0.00405 3.04-0.00613 0.909 0.00282 1.82 0.00564 2.75 0.00854 0.794 3.77e-4 1.59 7.54e-4 2.41 0.00114 1.81 0.126 1.81 0.126 2.81 1.13 0.125 3.5 0.125 3.5 0 7-7.56 7.56-21.3 1.66-32 2v255c10.2 0.33 20.5 0.66 31 1 1 1 1 1 1 8h-110c0-7 0-7 1-8 10.2-0.33 20.5-0.66 31-1v-255c-10.2-0.33-20.5-0.66-31-1-1-1-1-1-1.12-4.5 0.176-4.93 0.848-4.62 5.34-4.63z" fill="#ffffff"/>
<path transform="translate(121 655)" d="m0 0c0.867-0.0025 1.73-0.00501 2.63-0.00759 0.961 0.00234 1.92 0.00468 2.91 0.00709 1.02-0.00145 2.04-0.00291 3.09-0.0044 3.46-0.00369 6.93-1.59e-4 10.4 0.00326 2.5-0.00115 5-0.00274 7.5-0.00473 5.47-0.00333 10.9-0.0035 16.4-9.57e-4 8.19 0.00379 16.4 0.00188 24.6-0.00114 14.8-0.00526 29.6-0.00468 44.4-0.00185 13.2 0.00251 26.5 0.00289 39.7 0.00134 0.887-1.01e-4 1.77-2.02e-4 2.69-3.05e-4 3.61-4.12e-4 7.23-8.31e-4 10.8-0.00126 37.6-0.00442 75.3-9.43e-4 113 0.00532 4.04 6.7e-4 8.09 0.00133 12.1 0.00199 1 1.64e-4 2.01 3.28e-4 3.04 4.98e-4 21.2 0.00343 42.4 0.00461 63.6 0.0055 103 0.00439 207 0.0246 727 0.623 0.892 0.00148 1.78 0.00296 2.7 0.00448 84.6 0.14 169 0.29 277 0.496 0.66 1.32 1.32 2.64 2 4-2.59 2.59-4.34 2.24-7.86 2.27-1.25-0.00547-1.25-0.00547-2.52-0.0111-1.32 0.00599-1.32 0.00599-2.68 0.0121-3 0.0111-6 0.00776-9 0.00465-2.17 5e-3 -4.33 0.0109-6.5 0.0176-6.01 0.0159-12 0.0192-18 0.0206-5.85 0.00331-11.7 0.016-17.6 0.0284-12.1 0.0254-24.3 0.041-36.4 0.0515-12.3 0.0107-24.7 0.0256-37 0.0456-0.78 0.00126-1.56 0.00252-2.36 0.00382-3.18 0.00515-6.35 0.0103-9.53 0.0155-33.3 0.0545-66.6 0.0942-99.9 0.129-3.59 0.00375-7.19 0.00751-10.8 0.0113-0.892 9.34e-4 -1.78 0.00187-2.7 0.00283-19.8 0.0207-39.5 0.0454-59.3 0.0706-95.3 0.121-191 0.214-292 0.295-25.9 0.0207-51.9 0.0426-77.8 0.0652-95.3 0.0831-191 0.152-286 0.186-2.03 7.31e-4 -4.06 0.00146-6.09 0.0022-1 3.62e-4 -2.01 7.24e-4 -3.04 0.0011-2.03 7.3e-4 -4.05 0.00146-6.08 0.00219-5.05 0.00182-10.1 0.00364-15.2 0.00542-29.3 0.0104-58.5 0.0279-87.8 0.0495-35.5 0.0262-71 0.0421-106 0.0422-3.6 4.61e-5 -7.2 1.36e-4 -10.8 2.61e-4 -0.884 2.55e-5 -1.77 5.11e-5 -2.68 7.74e-5 -14.1 6.67e-4 -28.1 0.0113-42.2 0.026-13.8 0.0142-27.7 0.0177-41.5 0.00967-8.13-0.00441-16.3-5.27e-4 -24.4 0.0153-6.03 0.0108-12.1 0.00617-18.1-0.00478-2.44-0.00197-4.87 0.00119-7.31 0.00984-3.29 0.011-6.58 0.00371-9.87-0.00839-0.956 0.0076-1.91 0.0152-2.9 0.023-6.41-0.0514-6.41-0.0514-9.61-1.92-0.456-0.487-0.912-0.975-1.38-1.48 1.99-4.4 3.35-5.12 8.11-5.13z" fill="#ffffff"/>
</svg>
